<?xml version="1.0" standalone="no"?>
<!DOCTYPE svg PUBLIC "-//W3C//DTD SVG 20010904//EN"
 "http://www.w3.org/TR/2001/REC-SVG-20010904/DTD/svg10.dtd">
<svg version="1.0" xmlns="http://www.w3.org/2000/svg"
 width="122.000000pt" height="100.000000pt" viewBox="0 0 122.000000 100.000000"
 preserveAspectRatio="xMidYMid meet">
<metadata>
Created by potrace 1.10, written by Peter Selinger 2001-2011
</metadata>
<g transform="translate(0.000000,100.000000) scale(0.100000,-0.100000)"
fill="#252525" stroke="none">
<path d="M586 912 c-39 -21 -69 -27 -137 -30 -49 -3 -101 0 -119 6 -29 11 -32
10 -52 -24 -25 -42 -68 -67 -110 -62 -34 3 -42 -6 -58 -67 -7 -28 -19 -45 -39
-56 -27 -16 -28 -20 -28 -80 0 -46 -6 -75 -21 -106 l-21 -41 34 -67 c24 -46
35 -80 35 -109 0 -41 3 -45 50 -74 27 -17 64 -51 82 -76 34 -49 39 -52 69 -36
20 11 49 6 114 -21 26 -10 39 -8 92 11 33 12 82 39 108 61 55 46 78 48 145 14
58 -30 105 -31 210 -9 41 9 116 19 165 23 l90 6 6 135 c3 74 9 145 13 157 5
17 1 28 -19 45 -34 29 -52 63 -86 163 -27 79 -27 79 -70 91 -66 16 -90 31
-139 85 -44 48 -47 49 -77 38 -37 -12 -89 0 -135 32 -32 23 -41 23 -102 -9z
m79 -29 c-4 -21 -9 -47 -11 -58 -4 -20 -4 -20 5 0 5 11 13 34 17 50 3 17 9 24
11 18 3 -7 -1 -29 -7 -49 -7 -19 -10 -38 -7 -41 3 -3 13 17 22 43 l15 49 -5
-54 c-5 -61 0 -63 13 -5 6 25 14 38 22 36 8 -2 31 -4 51 -4 37 0 38 -1 32 -32
-3 -17 -14 -53 -24 -81 -14 -38 -15 -45 -3 -30 16 22 44 108 44 139 1 19 2 19
11 4 7 -12 4 -35 -11 -79 -37 -109 -82 -182 -141 -224 -47 -35 -57 -19 -15 24
49 50 46 65 -4 16 -47 -45 -53 -36 -10 15 17 19 30 37 30 41 0 11 -26 5 -44
-10 -10 -8 -16 -9 -16 -3 0 6 4 13 9 16 8 5 23 46 17 46 -2 0 -17 -23 -35 -51
-40 -64 -52 -58 -16 8 14 26 20 39 13 29 -27 -40 -57 -71 -58 -59 0 6 5 15 10
18 11 7 60 99 60 112 0 4 -7 -2 -16 -13 -14 -18 -15 -18 -8 6 16 57 24 97 24
128 0 22 5 32 15 32 13 0 15 -8 10 -37z m-41 -20 c-8 -57 -62 -213 -74 -213
-14 0 -20 30 -10 56 18 46 10 60 -10 19 l-19 -40 4 50 c4 36 2 44 -4 30 -5
-11 -10 -33 -10 -48 -1 -16 -5 -26 -10 -23 -4 3 -6 16 -4 28 2 13 0 34 -6 48
-10 24 -11 23 -10 -10 2 -62 -4 -67 -11 -10 l-7 55 -3 -60 c-2 -49 -4 -54 -9
-27 -3 18 -10 32 -15 32 -5 -1 -13 4 -17 12 -5 7 -6 -7 -3 -34 5 -33 3 -48 -5
-48 -6 0 -11 16 -11 39 0 22 -12 61 -27 92 l-28 54 100 0 c81 1 109 5 145 22
25 12 46 22 48 22 2 1 0 -20 -4 -46z m-261 -91 c9 -26 17 -60 16 -77 -1 -26
-2 -24 -11 13 -5 23 -13 42 -18 42 -5 0 -5 -14 1 -32 11 -41 4 -48 -9 -9 -6
17 -13 31 -16 31 -3 0 -1 -12 4 -26 12 -32 12 -34 0 -34 -5 0 -10 4 -10 9 0
17 -20 64 -25 59 -3 -3 2 -22 10 -43 18 -42 12 -62 -6 -21 -7 14 -16 26 -20
26 -5 0 1 -16 12 -35 12 -19 17 -35 12 -35 -5 0 -17 16 -27 35 -27 49 -32 36
-6 -14 24 -49 19 -52 -22 -11 -17 17 -33 29 -36 26 -3 -3 7 -15 21 -27 15 -11
27 -28 27 -37 -1 -13 -6 -10 -21 11 -11 15 -26 27 -32 27 -6 0 0 -11 13 -25
29 -31 18 -46 -13 -17 -27 25 -69 42 -105 42 l-26 0 27 28 c15 16 29 44 33 69
6 40 7 41 39 36 41 -7 85 18 110 60 l18 30 22 -27 c12 -15 29 -48 38 -74z
m582 10 c22 -11 59 -25 83 -31 23 -7 42 -17 42 -24 0 -17 68 -178 82 -195 14
-16 11 -19 -111 -110 -106 -79 -163 -102 -271 -108 -55 -2 -66 -1 -42 5 40 11
58 27 20 17 -39 -9 -77 2 -75 22 1 13 11 17 42 18 23 0 50 6 61 12 15 8 4 10
-46 6 l-65 -4 50 13 c55 14 100 36 92 44 -3 2 -19 -3 -36 -11 -16 -9 -47 -16
-68 -15 -33 1 -35 2 -13 8 39 12 92 42 86 48 -3 3 -11 1 -18 -4 -23 -18 -77
-32 -83 -22 -4 5 1 9 10 9 20 0 99 40 92 46 -3 3 -23 -4 -46 -15 -43 -22 -61
-26 -61 -13 0 4 15 14 34 20 19 7 40 20 48 29 9 13 3 11 -23 -5 -49 -30 -71
-28 -34 3 17 13 26 24 21 25 -6 0 4 15 20 33 54 57 88 118 128 231 6 17 8 17
24 4 9 -9 35 -25 57 -36z m-518 -84 c-2 -13 -4 -5 -4 17 -1 22 1 32 4 23 2
-10 2 -28 0 -40z m168 -7 c-21 -43 -29 -39 -8 4 9 19 18 33 21 31 2 -2 -4 -18
-13 -35z m-68 -38 c137 -127 134 -120 128 -238 -5 -121 -24 -205 -54 -233 -50
-47 -69 -56 -87 -41 -15 12 -16 11 -10 -11 7 -24 6 -24 -18 5 -14 17 -26 25
-26 19 0 -6 7 -17 15 -24 22 -19 18 -32 -6 -19 -12 6 -24 20 -26 30 -3 10 -9
19 -14 19 -15 0 -10 -16 11 -35 11 -10 20 -22 20 -26 0 -12 -60 -22 -73 -11
-7 6 -28 14 -47 19 -27 7 -35 15 -34 31 0 11 -3 19 -8 16 -4 -3 -8 27 -8 65 0
77 12 91 31 36 16 -44 31 -46 18 -3 -5 20 -5 36 1 42 11 11 16 -1 25 -64 7
-48 49 -130 67 -130 6 0 4 8 -6 19 -9 10 -25 43 -36 74 -23 65 -27 108 -5 62
15 -34 20 -19 5 19 -13 34 3 34 19 0 6 -15 14 -24 17 -21 3 3 1 15 -6 26 -6
12 -7 21 -2 21 5 0 16 -15 23 -32 15 -37 76 -108 92 -108 6 0 1 10 -11 23 -12
13 -19 27 -15 31 5 4 2 6 -6 4 -9 -2 -25 15 -39 40 -19 35 -22 45 -11 58 11
13 15 12 38 -9 41 -38 74 -57 96 -57 15 1 13 4 -11 14 -49 22 -106 76 -94 91
5 6 7 15 3 19 -4 4 5 2 21 -4 41 -15 45 -4 5 14 l-34 14 40 3 c36 2 37 2 10 7
l-30 4 35 14 35 14 -37 -5 c-23 -4 -38 -2 -38 5 0 5 15 10 33 10 32 0 124 36
115 45 -3 3 -18 -1 -34 -9 -38 -19 -124 -31 -124 -18 0 9 34 19 93 26 16 1 36
11 45 21 16 18 16 18 -9 2 -27 -16 -74 -13 -63 5 4 5 -8 3 -24 -6 -17 -9 -38
-13 -46 -10 -18 7 -22 24 -6 24 6 0 10 5 10 10 0 6 -8 5 -19 -2 -16 -10 -23
-9 -39 5 -12 11 -35 17 -65 17 -39 0 -49 -4 -63 -25 -9 -14 -24 -25 -33 -26
-12 0 -11 -2 4 -9 20 -9 20 -9 0 -10 -20 -1 -20 -1 0 -10 19 -8 19 -9 -2 -9
-13 -1 -23 -5 -23 -10 0 -5 10 -7 23 -5 l22 5 -22 -12 c-13 -7 -23 -17 -23
-23 0 -6 5 -5 12 2 19 19 30 14 18 -7 -15 -29 -12 -38 5 -15 17 22 20 12 4
-19 -9 -19 -7 -18 10 3 l21 25 -4 -30 c-2 -16 -1 -23 1 -15 10 31 24 35 19 5
l-6 -30 14 30 15 30 1 -33 c0 -21 4 -31 11 -27 6 4 8 14 4 22 -5 14 -3 14 11
2 15 -12 16 -11 9 10 -4 14 -3 21 2 18 12 -8 14 63 2 85 -18 34 -69 15 -69
-24 0 -13 10 -20 31 -25 19 -4 27 -9 21 -15 -14 -14 -82 12 -82 32 0 8 5 31
10 51 10 34 14 37 52 41 33 3 47 -1 71 -21 48 -40 59 -78 41 -139 -17 -55 -20
-57 -104 -67 l-55 -6 -52 53 c-51 52 -53 55 -43 88 6 19 10 50 10 68 0 24 7
40 27 55 14 12 41 37 59 55 25 24 42 32 71 33 21 1 49 5 63 9 43 14 56 11 87
-17z m133 -32 c-12 -17 -25 -31 -30 -31 -16 0 -22 21 -9 36 14 17 26 10 13 -9
-5 -7 2 -1 16 14 32 36 39 29 10 -10z m-505 0 c22 -10 47 -26 55 -36 14 -17
13 -17 -10 -10 -14 4 -32 10 -40 12 -8 3 0 -4 18 -16 17 -11 32 -23 32 -25 0
-3 -17 -3 -37 0 l-38 4 32 -10 c43 -14 56 -34 15 -25 -18 3 -33 2 -37 -4 -4
-7 5 -11 24 -11 17 0 31 -4 31 -10 0 -5 -11 -10 -25 -10 -14 0 -25 -4 -25 -9
0 -5 8 -7 19 -4 10 3 22 -1 27 -8 5 -8 3 -11 -8 -7 -8 4 -21 2 -29 -3 -11 -7
-9 -9 9 -9 12 0 22 -4 22 -10 0 -5 -6 -10 -14 -10 -8 0 -18 -5 -22 -12 -5 -8
-2 -9 9 -5 10 3 17 2 17 -3 0 -6 6 -10 14 -10 7 0 32 -20 55 -45 36 -39 40
-47 31 -70 -13 -34 -13 -87 1 -122 8 -23 7 -30 -7 -40 -25 -18 -32 -16 -48 15
-8 15 -24 37 -36 50 -21 23 -22 29 -5 89 3 10 -4 0 -15 -22 -21 -39 -21 -36
-7 27 2 7 -3 -2 -11 -19 -8 -18 -17 -33 -21 -33 -22 1 -39 31 -43 76 -3 34
-16 69 -36 102 l-31 51 21 42 c11 24 21 65 21 96 2 49 4 53 27 53 14 0 43 -9
65 -19z m380 -121 c-3 -5 -11 -10 -16 -10 -6 0 -7 5 -4 10 3 6 11 10 16 10 6
0 7 -4 4 -10z m664 -23 c-2 -2 -57 -38 -123 -80 -154 -100 -260 -137 -345
-119 -84 18 -81 29 8 24 124 -7 190 18 326 122 96 74 112 83 124 71 8 -8 13
-16 10 -18z m-821 -15 c4 -23 -12 -28 -37 -13 -12 8 -13 12 -1 26 17 20 34 14
38 -13z m803 -139 c-1 -71 -5 -130 -7 -132 -2 -3 -41 -5 -87 -6 -45 -1 -113
-10 -152 -19 -96 -22 -141 -20 -203 9 -30 14 -63 25 -73 25 -10 0 -19 5 -19
11 0 14 63 3 104 -18 16 -8 57 -17 90 -19 l61 -3 -58 9 c-32 5 -72 16 -90 24
-18 7 -47 19 -64 26 -41 15 -44 33 -4 19 16 -6 42 -9 58 -6 25 3 24 4 -8 6
-19 0 -44 8 -55 17 -18 15 -18 15 6 9 101 -26 211 -5 323 61 32 19 63 32 67
29 10 -6 93 45 86 52 -3 3 -21 -7 -41 -22 -19 -15 -38 -26 -40 -23 -5 4 93 76
105 77 3 1 3 -56 1 -126z"/>
<path d="M728 825 c-2 -19 0 -35 4 -35 4 0 8 6 8 13 0 6 3 22 6 35 4 12 2 22
-4 22 -5 0 -12 -16 -14 -35z"/>
<path d="M761 843 c0 -12 -4 -30 -7 -40 -5 -14 -4 -15 5 -7 7 6 11 24 8 40 -3
21 -4 23 -6 7z"/>
<path d="M787 837 c-11 -29 -9 -43 4 -30 6 6 9 19 7 29 -3 18 -4 18 -11 1z"/>
<path d="M840 717 c-17 -36 -51 -89 -76 -116 -25 -28 -41 -51 -36 -51 31 0
167 208 148 227 -3 3 -19 -24 -36 -60z"/>
<path d="M986 706 c-14 -19 -22 -37 -17 -40 8 -5 61 54 61 68 0 16 -20 2 -44
-28z"/>
<path d="M1009 678 c-18 -23 -34 -47 -35 -54 -4 -25 22 -21 54 7 18 16 27 29
21 29 -8 0 -8 4 1 15 10 12 10 15 0 15 -7 0 -10 7 -6 15 9 25 0 17 -35 -27z
m26 -8 c-1 -12 -12 -31 -25 -43 -18 -17 -20 -17 -9 -3 13 18 12 19 -6 12 -16
-6 -14 -1 9 23 17 17 30 31 31 31 1 0 1 -9 0 -20z"/>
<path d="M1023 610 c-31 -28 -44 -48 -23 -35 6 3 10 1 10 -5 0 -13 59 30 59
44 1 5 -9 0 -22 -12 -35 -33 -45 -26 -12 8 37 38 30 38 -12 0z"/>
<path d="M1040 565 l-23 -24 23 4 c30 6 41 17 31 33 -5 9 -13 6 -31 -13z"/>
<path d="M1054 536 c-10 -8 -17 -17 -14 -19 3 -3 14 1 24 9 11 7 17 16 15 19
-3 3 -14 -2 -25 -9z"/>
<path d="M725 360 l-50 -7 53 -1 c29 -1 52 2 52 8 0 6 -1 9 -2 8 -2 0 -25 -4
-53 -8z"/>
<path d="M489 523 c-13 -15 -12 -15 9 -4 23 12 28 21 13 21 -5 0 -15 -7 -22
-17z"/>
<path d="M495 350 c3 -5 14 -10 23 -10 15 0 15 2 2 10 -20 13 -33 13 -25 0z"/>
<path d="M301 255 c0 -11 4 -27 9 -35 9 -13 10 -13 9 0 0 8 -4 24 -9 35 -9 20
-9 20 -9 0z"/>
<path d="M400 205 c0 -5 5 -17 10 -25 5 -8 10 -10 10 -5 0 6 -5 17 -10 25 -5
8 -10 11 -10 5z"/>
<path d="M570 199 c0 -6 -10 -8 -22 -4 -22 6 -22 6 -4 -9 22 -18 40 -21 31 -7
-3 5 3 11 12 13 17 3 17 4 1 10 -10 4 -18 3 -18 -3z"/>
<path d="M338 123 c7 -3 16 -2 19 1 4 3 -2 6 -13 5 -11 0 -14 -3 -6 -6z"/>
<path d="M87 583 c-13 -46 -17 -77 -9 -63 10 17 24 80 17 80 -2 0 -6 -8 -8
-17z"/>
<path d="M51 464 c0 -12 15 -45 34 -74 19 -29 35 -45 35 -38 0 8 -13 33 -29
55 -16 22 -31 49 -34 59 -4 17 -5 17 -6 -2z"/>
<path d="M157 373 c-18 -20 -37 -67 -37 -90 0 -9 13 11 30 43 31 62 33 75 7
47z"/>
<path d="M220 345 c13 -14 26 -25 28 -25 3 0 -5 11 -18 25 -13 14 -26 25 -28
25 -3 0 5 -11 18 -25z"/>
<path d="M197 253 c-4 -3 -7 -18 -6 -32 1 -26 1 -25 10 3 9 31 7 41 -4 29z"/>
<path d="M216 235 c-3 -9 -6 -31 -5 -48 1 -28 2 -26 10 12 9 46 6 65 -5 36z"/>
<path d="M237 193 c-11 -10 -8 -63 3 -63 6 0 10 16 10 35 0 36 -2 40 -13 28z"/>
<path d="M350 459 c0 -5 5 -7 10 -4 6 3 10 8 10 11 0 2 -4 4 -10 4 -5 0 -10
-5 -10 -11z"/>
<path d="M1087 340 c-50 -31 -57 -40 -31 -40 9 0 12 5 8 12 -4 6 -3 8 4 4 6
-3 22 -1 37 6 18 8 22 14 13 20 -10 6 -8 8 5 8 9 0 17 5 17 10 0 14 0 14 -53
-20z"/>
<path d="M1083 297 c-18 -7 -33 -16 -32 -22 0 -13 60 -8 74 6 7 7 1 8 -20 4
l-30 -6 30 15 c36 17 23 19 -22 3z m-6 -23 c-3 -3 -12 -4 -19 -1 -8 3 -5 6 6
6 11 1 17 -2 13 -5z"/>
<path d="M1072 250 c-18 -4 -36 -11 -40 -15 -4 -4 5 -5 21 -1 25 6 32 0 28
-26 -1 -10 8 -9 34 2 18 8 18 9 -5 10 l-25 2 25 8 c21 7 22 8 5 10 -20 1 -20
1 0 10 25 11 2 11 -43 0z"/>
<path d="M950 200 c-72 -24 -44 -24 45 0 45 12 59 19 40 19 -16 0 -55 -8 -85
-19z"/>
<path d="M1148 213 c7 -3 16 -2 19 1 4 3 -2 6 -13 5 -11 0 -14 -3 -6 -6z"/>
</g>
</svg>
